# xmcd
# 
# Track frame offsets:
#     150
#     11931
#     26883
#     40580
#     56586
#     73539
#     90029
#     105456
# 
# Disc length: 1573
# 
# Revision: 0
# Processed by: cddbd v1.5.2PL0 Copyright (c) Steve Scherf et al.
# Submitted via: fre:ac v1.0.17
# 
DISCID=5a062308
DTITLE=MINMIN - エアガール
DYEAR=2015
DGENRE=Rock
TTITLE0=エアガール
TTITLE1=Sand Time
TTITLE2=Frenemy
TTITLE3=からっぽ怪獣
TTITLE4=リミットブレイク
TTITLE5=SKY DANCE
TTITLE6=My Prince
TTITLE7=ゴールドスクリュー
EXTD=
EXTT0=
EXTT1=
EXTT2=
EXTT3=
EXTT4=
EXTT5=
EXTT6=
EXTT7=
PLAYORDER=
